<svg xmlns="http://www.w3.org/2000/svg" width="140" height="147" viewBox="0 0 140 147"><g><g><path fill="#ffd400" d="M84.648 136.532h-29.29a4.109 4.109 0 0 0 0 8.216h29.29a4.11 4.11 0 0 0 4.11-4.109 4.11 4.11 0 0 0-4.11-4.107z"/></g><g><path fill="none" stroke="#000" stroke-linecap="round" stroke-linejoin="round" stroke-miterlimit="20" stroke-width="3" d="M84.648 136.532v0h-29.29a4.109 4.109 0 0 0 0 8.216h29.29a4.11 4.11 0 0 0 4.11-4.109 4.11 4.11 0 0 0-4.11-4.107z"/></g><g><path fill="#ffd400" d="M70.013 25.588a5.476 5.476 0 0 0 5.48-5.478V7.367a5.475 5.475 0 0 0-5.48-5.477 5.476 5.476 0 0 0-5.477 5.477V20.11a5.476 5.476 0 0 0 5.477 5.478z"/></g><g><path fill="none" stroke="#000" stroke-linecap="round" stroke-linejoin="round" stroke-miterlimit="20" stroke-width="3" d="M70.013 25.588a5.476 5.476 0 0 0 5.48-5.478V7.367a5.475 5.475 0 0 0-5.48-5.477 5.476 5.476 0 0 0-5.477 5.477V20.11a5.476 5.476 0 0 0 5.477 5.478z"/></g><g><path fill="#ffd400" d="M34.068 33.568a5.478 5.478 0 0 0 7.655 1.215 5.48 5.48 0 0 0 1.215-7.649l-7.49-10.313a5.478 5.478 0 0 0-8.867 6.434z"/></g><g><path fill="none" stroke="#000" stroke-linecap="round" stroke-linejoin="round" stroke-miterlimit="20" stroke-width="3" d="M34.068 33.568a5.478 5.478 0 0 0 7.655 1.215 5.48 5.48 0 0 0 1.215-7.649l-7.49-10.313a5.478 5.478 0 0 0-8.867 6.434l7.487 10.313v0z"/></g><g><path fill="#ffd400" d="M105.95 113.865a5.482 5.482 0 0 0-7.65-1.21 5.477 5.477 0 0 0-1.209 7.65l7.494 10.313a5.463 5.463 0 0 0 4.435 2.258 5.478 5.478 0 0 0 4.424-8.698z"/></g><g><path fill="none" stroke="#000" stroke-linecap="round" stroke-linejoin="round" stroke-miterlimit="20" stroke-width="3" d="M105.95 113.865a5.482 5.482 0 0 0-7.65-1.21 5.477 5.477 0 0 0-1.209 7.65l7.494 10.313a5.463 5.463 0 0 0 4.435 2.258 5.478 5.478 0 0 0 4.424-8.698l-7.494-10.313v0z"/></g><g><path fill="#ffd400" d="M20.729 51.942L8.607 48a5.469 5.469 0 0 0-6.905 3.517 5.477 5.477 0 0 0 3.514 6.903l12.122 3.942a5.481 5.481 0 0 0 6.905-3.517 5.477 5.477 0 0 0-3.514-6.903z"/></g><g><path fill="none" stroke="#000" stroke-linecap="round" stroke-linejoin="round" stroke-miterlimit="20" stroke-width="3" d="M20.729 51.942v0L8.607 48a5.469 5.469 0 0 0-6.905 3.517 5.477 5.477 0 0 0 3.514 6.903l12.122 3.942a5.481 5.481 0 0 0 6.905-3.517 5.477 5.477 0 0 0-3.514-6.903z"/></g><g><path fill="#ffd400" d="M134.806 89.012l-12.12-3.937a5.482 5.482 0 0 0-6.9 3.516 5.479 5.479 0 0 0 3.518 6.903l12.123 3.938a5.453 5.453 0 0 0 1.69.269 5.486 5.486 0 0 0 5.21-3.787 5.479 5.479 0 0 0-3.52-6.902z"/></g><g><path fill="none" stroke="#000" stroke-linecap="round" stroke-linejoin="round" stroke-miterlimit="20" stroke-width="3" d="M134.806 89.012v0l-12.12-3.937a5.482 5.482 0 0 0-6.9 3.516 5.479 5.479 0 0 0 3.518 6.903l12.123 3.938a5.453 5.453 0 0 0 1.69.269 5.486 5.486 0 0 0 5.21-3.787 5.479 5.479 0 0 0-3.52-6.902z"/></g><g><path fill="#ffd400" d="M17.343 85.075L5.216 89.006a5.472 5.472 0 0 0-3.518 6.9 5.477 5.477 0 0 0 5.208 3.79c.558 0 1.13-.089 1.692-.27l12.124-3.932a5.473 5.473 0 0 0 3.52-6.9 5.469 5.469 0 0 0-6.9-3.519z"/></g><g><path fill="none" stroke="#000" stroke-linecap="round" stroke-linejoin="round" stroke-miterlimit="20" stroke-width="3" d="M17.343 85.075v0L5.216 89.006a5.472 5.472 0 0 0-3.518 6.9 5.477 5.477 0 0 0 5.208 3.79c.558 0 1.13-.089 1.692-.27l12.124-3.932a5.473 5.473 0 0 0 3.52-6.9 5.469 5.469 0 0 0-6.9-3.519z"/></g><g><path fill="#ffd400" d="M120.996 62.633c.562 0 1.128-.09 1.69-.271l12.12-3.936a5.48 5.48 0 0 0 3.521-6.902c-.938-2.876-4.039-4.45-6.9-3.518l-12.123 3.937a5.478 5.478 0 0 0 1.692 10.69z"/></g><g><path fill="none" stroke="#000" stroke-linecap="round" stroke-linejoin="round" stroke-miterlimit="20" stroke-width="3" d="M120.996 62.633c.562 0 1.128-.09 1.69-.271l12.12-3.936a5.48 5.48 0 0 0 3.521-6.902c-.938-2.876-4.039-4.45-6.9-3.518l-12.123 3.937a5.478 5.478 0 0 0 1.692 10.69z"/></g><g><path fill="#ffd400" d="M34.075 113.863l-7.5 10.307a5.473 5.473 0 0 0 1.209 7.652 5.433 5.433 0 0 0 3.214 1.05 5.459 5.459 0 0 0 4.435-2.257l7.5-10.307a5.473 5.473 0 0 0-1.21-7.652c-2.438-1.788-5.878-1.24-7.648 1.207z"/></g><g><path fill="none" stroke="#000" stroke-linecap="round" stroke-linejoin="round" stroke-miterlimit="20" stroke-width="3" d="M34.075 113.863v0l-7.5 10.307a5.473 5.473 0 0 0 1.209 7.652 5.433 5.433 0 0 0 3.214 1.05 5.459 5.459 0 0 0 4.435-2.257l7.5-10.307a5.473 5.473 0 0 0-1.21-7.652c-2.438-1.788-5.878-1.24-7.648 1.207z"/></g><g><path fill="#ffd400" d="M104.58 16.821l-7.488 10.313a5.479 5.479 0 0 0 8.867 6.434l7.49-10.312a5.48 5.48 0 0 0-1.215-7.649 5.469 5.469 0 0 0-7.653 1.214z"/></g><g><path fill="none" stroke="#000" stroke-linecap="round" stroke-linejoin="round" stroke-miterlimit="20" stroke-width="3" d="M104.58 16.821v0l-7.488 10.313a5.479 5.479 0 0 0 8.867 6.434l7.49-10.312a5.48 5.48 0 0 0-1.215-7.649 5.469 5.469 0 0 0-7.653 1.214z"/></g><g><path fill="#ffd400" d="M109.575 73.919c0-21.854-17.714-39.57-39.566-39.57-21.856 0-39.571 17.716-39.571 39.57 0 9.22 3.17 17.685 8.468 24.405a170.456 170.456 0 0 1 12.847 18.788v13.143H88.04V117.46c3.775-6.292 8.654-13.537 13.063-19.131 5.302-6.722 8.472-15.184 8.472-24.41z"/></g><g><path fill="none" stroke="#000" stroke-linecap="round" stroke-linejoin="round" stroke-miterlimit="20" stroke-width="3" d="M109.575 73.919c0-21.854-17.714-39.57-39.566-39.57-21.856 0-39.571 17.716-39.571 39.57 0 9.22 3.17 17.685 8.468 24.405a170.456 170.456 0 0 1 12.847 18.788v13.143H88.04v0-12.795c3.775-6.292 8.654-13.537 13.063-19.131 5.302-6.722 8.472-15.184 8.472-24.41z"/></g></g></svg>