<svg xmlns="http://www.w3.org/2000/svg" width="134" height="134" viewBox="0 0 134 134"><g><g><path fill="#ffd400" d="M41.872 131.741c-21.98 0-39.862-17.882-39.862-39.862V41.401c0-21.98 17.882-39.862 39.862-39.862H92.35c21.98 0 39.863 17.882 39.863 39.862V91.88c0 21.98-17.882 39.862-39.863 39.862zm0-120.453c-16.604 0-30.113 13.51-30.113 30.113V91.88c0 16.603 13.509 30.113 30.113 30.113H92.35c16.605 0 30.114-13.51 30.114-30.113V41.401c0-16.603-13.51-30.113-30.114-30.113z"/></g><g><path fill="none" stroke="#000" stroke-linecap="round" stroke-linejoin="round" stroke-miterlimit="20" stroke-width="3" d="M41.872 131.741c-21.98 0-39.862-17.882-39.862-39.862V41.401c0-21.98 17.882-39.862 39.862-39.862H92.35c21.98 0 39.863 17.882 39.863 39.862V91.88c0 21.98-17.882 39.862-39.863 39.862zm-30.113-90.34V91.88c0 16.603 13.509 30.113 30.113 30.113H92.35c16.605 0 30.114-13.51 30.114-30.113V41.401c0-16.603-13.51-30.113-30.114-30.113H41.872c-16.604 0-30.113 13.51-30.113 30.113z"/></g><g><path fill="#ffd400" d="M34.175 66.64c0-18.16 14.775-32.936 32.935-32.936 18.161 0 32.936 14.775 32.936 32.935 0 18.162-14.775 32.938-32.936 32.938-18.16 0-32.935-14.777-32.935-32.938zm9.984 0c0 12.655 10.296 22.951 22.951 22.951 12.656 0 22.952-10.295 22.952-22.951S79.766 43.686 67.11 43.686c-12.655 0-22.95 10.298-22.95 22.953z"/></g><g><path fill="none" stroke="#000" stroke-linecap="round" stroke-linejoin="round" stroke-miterlimit="20" stroke-width="3" d="M34.175 66.64c0-18.16 14.775-32.936 32.935-32.936 18.161 0 32.936 14.775 32.936 32.935 0 18.162-14.775 32.938-32.936 32.938-18.16 0-32.935-14.777-32.935-32.938zm9.984 0c0 12.655 10.296 22.951 22.951 22.951 12.656 0 22.952-10.295 22.952-22.951S79.766 43.686 67.11 43.686c-12.655 0-22.95 10.298-22.95 22.953z"/></g></g></svg>