<svg xmlns="http://www.w3.org/2000/svg" width="134" height="150" viewBox="0 0 134 150"><g><g><path fill="none" stroke="#000" stroke-linecap="round" stroke-linejoin="round" stroke-miterlimit="20" stroke-width="3" d="M102.531 55.196a79.599 79.599 0 0 0-.65 14.195c.13 2.886.026 5.783.026 8.674 0 20.61.005 41.22-.012 61.83 0 1.426.276 2.691 1.333 3.712.093.09.101.268.122.333l1.171.47.03.241c-.614.281-1.202.694-1.845.82-2.807.548-5.612 1.201-8.45 1.476-12.39 1.202-24.823 1.144-37.253.935-6.278-.106-12.553-.306-18.789-1.076-2.369-.292-4.71-.829-7.049-1.326-.65-.138-1.245-.535-2.022-.882l.728-.453c1.32-.816 2.016-2 2.06-3.552.022-.79.004-1.58.004-2.372 0-22.736-.032-45.47.03-68.206.011-4.08.141-8.159-.359-12.212-.37-3.013-.905-6.005-1.37-9.005-.018-.113-.075-.217-.176-.495-.073.887-.182 1.591-.178 2.295.011 1.384-.39 2.641-1.129 3.78-1.357 2.092-2.77 4.146-4.13 6.235-.302.462-.499.996-.709 1.512-.344.841-.617 1.714-1 2.535-.26.558-.704.693-1.35.435-5.709-2.28-11.433-4.52-17.146-6.788a6.254 6.254 0 0 1-1.35-.755c-1.288-.943-1.379-1.299-.816-2.783 3.72-9.81 7.464-19.614 11.142-29.44.778-2.08 1.355-4.233 2.546-6.14 2.062-3.298 4.79-5.79 8.448-7.253 7.106-2.84 14.181-5.76 21.291-8.592 1.205-.48 2.512-.74 3.795-.967.41-.072.797-.143 1.181-.298.927-.373 1.852-.115 2.77.05 9.417 1.693 18.82 1.665 28.221-.154.626-.12 1.343.253 2.023.371.242.042.512-.047.745.015 1.453.387 2.948.673 4.338 1.225 6.814 2.706 13.581 5.531 20.4 8.223 5.035 1.99 8.372 5.588 10.274 10.548 2.281 5.946 4.431 11.941 6.664 17.905 1.888 5.04 3.802 10.07 5.736 15.092.231.603.171 1.098-.276 1.471-.635.533-1.284 1.13-2.035 1.433-5.748 2.316-11.525 4.556-17.28 6.852-.629.251-1.048.1-1.287-.425-.398-.869-.688-1.786-1.04-2.675-.17-.428-.327-.874-.58-1.25a215.748 215.748 0 0 0-3.285-4.756c-1.448-2.033-2.263-4.258-2.193-6.778.007-.246-.02-.492-.033-.738l-.197-.003c-.366 2.237-.787 4.466-1.089 6.711zM72.466 15.11c3.861-.827 7.206-2.612 9.495-5.944.654-.954 1.11-2.096 1.426-3.216.334-1.183-.318-2.05-1.553-2.21-.818-.105-1.69-.1-2.495.064-6.679 1.362-13.409 1.286-20.148.715-1.937-.164-3.847-.645-5.78-.875-2.593-.306-3.63 1.115-2.649 3.517.076.183.161.36.246.54 1.164 2.427 3.035 4.18 5.33 5.502 3.261 1.881 6.836 2.486 10.563 2.668 1.856-.245 3.74-.369 5.565-.76z"/></g><g><path fill="#ffd400" d="M82.629 63.904c0 9.081-7.362 16.443-16.443 16.443-9.082 0-16.444-7.362-16.444-16.443 0-9.08 7.362-16.443 16.444-16.443 9.08 0 16.443 7.362 16.443 16.443z"/></g><g><path fill="none" stroke="#000" stroke-linecap="round" stroke-linejoin="round" stroke-miterlimit="20" stroke-width="3" d="M82.629 63.904c0 9.081-7.362 16.443-16.443 16.443-9.082 0-16.444-7.362-16.444-16.443 0-9.08 7.362-16.443 16.444-16.443 9.08 0 16.443 7.362 16.443 16.443z"/></g><g><path d="M80.629 84.458c0 7.964-6.48 14.444-14.444 14.444-7.963 0-14.442-6.48-14.442-14.444s6.479-14.443 14.443-14.443c7.963 0 14.442 6.479 14.442 14.443zm-30.887 0c0 9.08 7.362 16.444 16.444 16.444 9.08 0 16.442-7.363 16.442-16.444s-7.361-16.443-16.442-16.443c-9.083 0-16.444 7.362-16.444 16.443z"/></g></g></svg>