<svg xmlns="http://www.w3.org/2000/svg" xmlns:xlink="http://www.w3.org/1999/xlink" width="207" height="164">
  <defs>
    <path id="a" d="M0 194h268V0H0z" />
  </defs>
  <g fill="none" fill-rule="evenodd" transform="translate(-34 -17)">
    <mask id="b" fill="#fff">
      <use xlink:href="#a" />
    </mask>
    <g mask="url(#b)">
      <path fill="#202124" d="M181.8 152.7c0-.2-.1-.3-.3-.4l-.7.1-1 .5a900 900 0 0 0-8.8 4.1l-5.2 2.6-4.5 2.1-5 2.7c-.6.3-.5 1-.5 1.5v5.4c0 .4-.1 1 .3 1.3h1l1.2-.6 6-3 1.5-.7c2.1-1 4.3-2 6.4-3.2l7.6-4 1.2-.6c.8-.5.8-.8.8-1.7a470 470 0 0 0 0-6.1m44.6-80.8v-5c0-.7.1-1.5-.2-2.2-.2-.6-.7-.9-1.2-1.3l-1.9-1.2c-2-1-4-2.3-6-3.4l-5.5-2.8c-.4-.2-.7-.5-1.3-.6l-3.7 1.8-2.5 1.1-8.6 4c-.9.5 0 .9.4 1.1l2.4 1.4 4.4 2.6c1.3.9 2.7 1.5 4 2.3l4.6 2.9V106c0 .4-.2 1.3.4 1.2.3 0 .7-.3 1-.4l1.3-.7 1.8-1 7-4.2 2.5-1.5c.4-.3.6-.4.8-.8.2-.3.4-.6.4-1v-15l-.1-10.7M107.8 54.4c-.2.2-.6.2-.8 0-.3 0-1-.6-1.3-.4l-.4 1c-.8 1.8-2.6 3.5-4.7 3.7l-2.2-.1c-.4-.1-.8-.3-1.2-.2-.5.2-.5.7-.7 1a9 9 0 0 1-.6 1c-.3.5-1 1.2-1.5 1.1-.7 0-1-1-1.4-1.4a2 2 0 0 0-2.1-.8c-.4 0-.8.3-1 .6-.3.3-.7 1.1-1 .4-1-2-.4-5 .3-7 .2-.7.5-1.3.9-1.9 1-1.8 2.7-3.5 4.7-4.3a9.4 9.4 0 0 1 11.5 3c.5.7 1 1.5 1.3 2.3.2.5.7 1.5.2 2" />
      <path fill="#D2E3FC" d="M204.2 92c0-.7-.3-1.7-1-2.2-.6-.6-1.8-.4-2 .5-.3 1 .1 2.2 1 2.8.3.2.5.4.9.4.8 0 1.1-.7 1.1-1.4m-7.8-2.5a8 8 0 0 1 .8-3.7c.7-1.3 2-2.3 3.6-2.3 1 0 2 .1 2.8.5 1.1.4 2.1 1 3 1.8 1.5 1.4 2.3 3 2.6 4.9.4 2.4.4 5.6-1.4 7.4-.9.9-1.8 1.4-3 1.5-2.4.1-5-1.5-6.3-3.3a10.3 10.3 0 0 1-2.1-6.8" />
      <path fill="#202124" d="M107 166c.3-.3.5-.7.6-1l.4-.7c.2-.2.6-.1.6.2.1.3-.3.7-.4 1-.1.4-.5.7-.4 1 .2.8 1.5 1.3 2 1.5a12 12 0 0 0 7.5.4c.5-.1 1-.3 1.4-.1.3 0 .6.4.8.6l.8.6 1 .5c.2 0 .5 0 .6.3 0 .3-.1.4-.4.4l-1.1-.5-1-.7c-.1 0-.8-.7-1-.7l-.6.2c-1.3.3-2.5.5-3.8.5-2 0-4.3-.5-5.8-1.8-.4-.3-.8-.8-1.3-1-.6-.3-1.2 0-1.8 0l-2-.2h-2l-1.7-.3-1.7-.2-2.2-.3-3.6-.7-3.2-.7-4.5-1a50 50 0 0 1-9.7-3.9l-1.4-.7a42 42 0 0 1-8.7-5.9l-2.7-2.5a9.3 9.3 0 0 1-1.6-1.8c-1-1.4-2.2-2.8-3.1-4.3a35 35 0 0 1-5.2-12.7l-.5-3.1c-.3-2.1-.7-4.2-.8-6.3-.1-2 .2-4 .3-6.1 0-1.5 0-3 .2-4.4.2-1.4.6-2.7.7-4.1.3-1.7.8-3.3 1.2-4.9l.7-2.4c.7-2.2 1.7-4.3 2.5-6.4l1-1.9c1.6-3 3.2-6 5.2-8.8l1.8-2.4c.7-1 1.5-1.8 2.3-2.6l1-1.2c0-.1 0-.2.2-.3A58 58 0 0 1 86 63.2l1.5-.6c.6-.1.8.3.4.8a4 4 0 0 1-1.5.6c-1.7.6-3.2 1.5-4.7 2.3A48.4 48.4 0 0 0 67 78.1c-1.7 2-3.4 4.1-5 6.3a43 43 0 0 0-3.3 5.8l-2 3.7-1.5 4a54.2 54.2 0 0 0-3 10.3 89 89 0 0 0-.7 5.5l-.3 4c-.1 3 0 6 .3 8.8a36.2 36.2 0 0 0 7.7 19.9 43 43 0 0 0 18 13.6 69 69 0 0 0 19.9 5.3c2 .3 3.9.7 5.9.9h2.5l1.2-.1.2-.1" />
      <path fill="#D2E3FC" d="M203.8 75.6c-.2-.4-.5-.7-.9-.8-.5 0-1 .4-1.2.9-.2.8.3 1.7 1.1 1.9 1.2.3 1.4-1.1 1-2m-6.1-1a6.9 6.9 0 0 1 .7-2.7c1-2 3.5-2.4 5-1.8a7 7 0 0 1 2.8 2.3c1.6 2 2.7 5.3 1.5 7.8-1.1 2.6-4.6 3-6.7 1.4-.6-.4-1.3-1-1.7-1.7a9.1 9.1 0 0 1-1.6-5.2" />
      <path fill="#202124" d="M137.3 65.7c.1-.5 1.7.6 1.9.7l2.2 1.3c.8.7 1.8 1.2 2.6 1.8 1 .6 1.8 1.4 2.7 2 .5.5 1 1 1.6 1.3 1.4 1 2.5 2.3 3.8 3.4l1.7 2 1.8 2a22.8 22.8 0 0 1 5.6 9.3c.5 1.6.6 3.3.2 5-.2 1-.3 1.8-.8 2.7l-1 2a10 10 0 0 1-2 2.2c-.8.7-1.6 1.4-2.7 1.8l-2.8 1.2c-1 .4-2 .6-3 .8l-3 .5c-2 .2-4 0-5.8 0a70.4 70.4 0 0 1-8.3-.6l-2.2-.3c-.5 0-1-.2-1.4-.4-.5-.2-.3-.8.2-.7l4.8 1 2.9.3 3.2.2h3.2l2.4-.1c.7 0 1.5-.2 2.2-.4a23.8 23.8 0 0 0 6.3-1.7 10.4 10.4 0 0 0 4.5-3.1 12.5 12.5 0 0 0 2.7-6.2c.3-1.5.2-3-.2-4.4l-.2-.6c-1-2-2-4-3.5-5.7l-1.9-2.4a34.2 34.2 0 0 0-3.6-4l-2.9-2.7c-.3-.4-.8-.6-1.2-1l-3.6-2.8c-1-.8-2.2-1.5-3.3-2.2l-1.7-1.2-.9-.5c-.1-.1-.5-.3-.5-.5m28.7 74.6v-.1c.4-.5 1.7-.3 2.1-.3 3 .1 5.7 1 8.2 2.4l2.2 1.2a13 13 0 0 1 2.5 2.1c.8.8 1.8 1.6 2.5 2.5a18.7 18.7 0 0 1 3.3 7.1l.2 1.2c.3 1.8.3 3.4.3 5.2 0 2.9-1 5.8-2.4 8.3a17 17 0 0 1-5.3 6.4c-1.2.8-2.5 1.4-3.8 2.1-3.5 2-8 2.1-11.9 1.6l-3.4-.8a18 18 0 0 1-6.9-4.2l-1.6-1.6c-.2-.3-1.8-2-1.3-2.3.3-.3 1 .6 1 .8a19.7 19.7 0 0 0 13.5 7.6h2.6c1.8 0 3.6-.1 5.2-.6 1.4-.4 2.7-1.1 4-1.8a19.8 19.8 0 0 0 6.9-6.4c.8-1.3 1.4-2.7 2-4.1.5-1.4.9-3 1-4.5 0-1.2 0-2.3-.3-3.5-.1-.8 0-1.6-.2-2.4-.4-1.6-.7-3.2-1.4-4.7a15 15 0 0 0-3-4l-2.2-2.2c-.9-.7-1.7-1.4-2.7-2a23 23 0 0 0-7.7-2.6c-.8-.1-1.6 0-2.4-.2-.2 0-1 0-1-.2" />
      <path fill="#4285F4" d="M163.3 154.4c.2 0 .3-.6.2-.7-.1-.4-.5 0-.5.2s.1.5.3.5m2.6-.5l.2-.2c0-.2-.2-.4-.3-.5-.3-.3-.5 0-.3.4l.3.3h.1m-1.8-3.3s.3-.3.3-.5c0-.3-.1-.8-.4-.3v.8m1.6 0c-.2.1-.2.4-.2.5l.2.4c.2.3.3-.1.3-.3 0-.2 0-.5-.2-.5h-.1m-1.2.9l-.2.1-.2.6c0 .3.4.5.5.1l.1-.5c0-.2-.1-.4-.2-.3m-1.6 0l-.3.4c-.1.1-.2.4-.1.5 0 .4.4 0 .4-.2 0-.1.2-.5 0-.6m-.3 5l-.8-.6c-1.4-1.6-.6-4.3.3-6l.8-1.4c.4-.8 1.1-1.3 1.9-.8 2 1.2 4.3 4.6 3 7a4 4 0 0 1-1.4 1.4c-1 .6-2.7.9-3.8.4" />
      <path fill="#202124" d="M109.6 162.6l.8-.3a11.6 11.6 0 0 1 14 3.9l.8 1.4c.1.3.4.8.2 1.1 0 .2-.2.2-.4 0-.2-.1-.2-.4-.3-.6l-.5-1.1-.2-.4a9.3 9.3 0 0 0-3.7-3.4 13.2 13.2 0 0 0-8.7-.7c-1 .2-2.2 1-3 .2l-1.6-1.4-4.6-3.5-7.3-5.4-2-1.5-4.7-3.4-3.5-2.3-2.1-1.4-2-1.5-1.7-1-1.6-1.1-.9-.5c-.3-.5.2-.6.5-.4 1 .4 1.8 1 2.7 1.6.6.4 1 .8 1.7 1.1l3.3 2.3 2 1.3A36 36 0 0 0 90 148l5.2 3.6 1.3 1 2.5 2c1.3.9 2.7 1.8 3.9 2.8 1.5 1.3 3.1 2.4 4.7 3.6l1.2 1 .6.6h.2m16.3-100.4c0-.1 0-.2.2-.2.3 0 .5.4.7.6l.7.7c1.4 1.3 3 2.2 4.9 2.8l2.5.8c.5.3.6.8.7 1.2l.8 2.4 1.8 6 2.3 7 .8 1.8.6 1.4c0 .1.2.5.1.7 0 .2-.5.1-.6 0l-.6-1.7-.8-2.2-.5-1.4a6 6 0 0 0-1.2-2 74 74 0 0 0-10-9.2l-3-2c-1.4-1.2-2.8-2-4.2-2.8-.2-.1-.4-.2-.4-.4-.1-.5.4-.3.7-.2l1.1.7 1 .7a65.3 65.3 0 0 1 8.2 6.1l4.2 3.8 1.8 1.8.7.6c.2-.3 0-.7-.2-1L138 77l-.8-2.2-1.5-4.7-.4-1.3-.4-1.3-.7-.2c-1-.3-2-.6-3-1.1l-1-.4c-1-.5-2-1-2.7-1.9l-.8-.8-.6-.7-.1-.2" />
      <path fill="#4285F4" d="M135.8 27.5l-.7.5c-.5.1-1.2.1-1.6-.2-.6-.5-.4-1.5.2-1.8a2 2 0 0 1 1.1-.2c.1 0 1.2.1 1.1.2l1.7-4.6.9-2.2c.4-1 .7-2 2-1.2 1.5 1 3.2 1.8 4.8 2.5 1.3.6.2 2.4 0 3.3l-1.4 4.2c-.2.8-.4 1.6-1 2.2-.4.6-1.2.8-2 .5-.6-.3-1-1.2-.4-1.7.7-.5 1.7-.5 2.4-.1l1-2.7 1.1-4c.2-.6 0-.8-.4-1l-1.9-1c-.8-.3-1.7-.8-2.4-1.3-1-.7-1.3.8-1.6 1.4l-1.1 2.9-1.3 3.3c0 .4-.2.7-.5 1" />
      <path fill="#202124" d="M195.6 96.4l.3.3 1.5 1 3 2 6 4 1.8 1.1.9.7c.1 0 .4.2.4.4 0 .1.1.4-.1.3a10 10 0 0 1-1.1-.6l-8.6-5.7-2.6-1.7c-.7-.4-2.2-1-2.2-1.9V73.8l.2-4.8v-2.5l-.2-1.4.1-.7c.3-.2.6 0 .7.3v6.5a222.8 222.8 0 0 0-.2 11.6v12.8l.1.8M79.7 108.8h.5v3.3l-.4 2.8-.7 5c-.2.6-.2 1.3-.3 2l-.4 1.4-.4 2.4-.5 3.4-1 6-.3 1.7c0 .5-.3 1-.6 1.3-.3 0-.3-.2-.3-.4l.5-3 .7-4.2.8-5.2.4-2.4c0-.8.2-1.5.4-2.2l1-5.5c0-1.3.1-2.6.3-3.8.2-.8.3-1.6.3-2.6" />
      <path fill="#D2E3FC" d="M117.4 101.1l.2.4c-.1.4-.8.5-1.2.7a359.4 359.4 0 0 0-5 2.2l-6.7 3-3.8 1.7c-2.6 1.2-5 2.6-7.7 3.7l-4.2 2-1.1.6c-.3.2-.8.1-.7-.3.1-.3 1-.4 1.2-.6l1.7-.8c3-1.3 5.7-2.8 8.6-4.2a303.3 303.3 0 0 1 15-6.9c.8-.2 1.4-.6 2.1-1 .4 0 1-.6 1.5-.5h.1m-29.3.4v-.3c.3-.3.9-.4 1.2-.5l3-1.3c1.1-.4 2-1.2 3-1.6 2-1 3.9-1.6 5.8-2.4l6-2.5c1.3-.5 2.7-1 4-1.7l4-1.8 1.3-.5.5-.2c.6.1 0 .6-.3.7l-4.8 2-.6.3-3.4 1.6c-2.7 1.2-5.5 2.2-8.2 3.3-3 1.2-6 2.5-8.8 4l-2.2 1c-.2.1-.4 0-.5-.1" />
      <path fill="#4285F4" d="M177.3 44.5h.1c.5 0 .8.9 1 1.3.7 1 1.6 2 2 3.2.1.3 0 1.2-.3 1.3-.6 0-.4-1.5-.5-1.8l-1-1.9c-.5-.7-.9-1.4-1.7-.6l-1.4 2-2.1 3.6c-.4.7-1.2 1.8-2 1.9-1.1 0-2-1.1-1.3-2 .6-.7 1.6-.5 2.3-.2l4-6c.3-.2.5-.8 1-.8" />
      <path fill="#202124" d="M127.8 55.5c-1.3-.4-2.8 0-4 .8l-1.2.8a11 11 0 0 0-2 2 3 3 0 0 1-.8.7c-.5.4 0-.4 0-.6l.6-.7c1-1 1.9-1.9 3-2.6a5.7 5.7 0 0 1 3.7-1h.9a4.2 4.2 0 0 1 1.8 1.2c.8.8 1.7 1.6 2.4 2.5 1.3 1.5 2.5 3.2 3.7 4.8l.7 1c.3.5.1.7-.2 1.2-.1.2-.5.6-.8.6 0-.5.6-.9.6-1.4l-.7-1-2.6-3.6c-1.2-1.6-2.5-3-4-4.2l-1.1-.5" />
      <path fill="#4285F4" d="M99.7 27c-.3.5-1 .8-1.5.9-.7 0-1.2-.4-.8-1.2a2 2 0 0 1 1.2-.8c.5-.1 1 0 1.1-.6.7-2.2 1.3-4.4 2.2-6.6.3-.7 1.3.4 1.7.7.3.2 1.7 1.3 1.2 1.8 0 0-2.2-2-2.3-1.8l-.3.5-1.1 3.6-.8 2.4-.6 1.2" />
      <path fill="#202124" d="M102.5 65.7c0 .2-.5.5-.6.6-1.7.8-3.6 1-5.4.8a8.8 8.8 0 0 1-4.9-2.4l-1-1-.6-1-.2-.7c0-.4.2-.2.4 0l.5.8.8.9a8 8 0 0 0 6.6 2.8 11.6 11.6 0 0 0 3.5-.8c.2 0 .4-.2.7-.1h.2m53.2 97.1c-.2 0-.1-.6-.1-.7v-9.7c0-.7-.2-1.4-.1-2 0-1 2.2-.6 2.9-.4l2 .3c.4 0 .5.3.2.4-.4.2-1-.1-1.5-.2l-1.7-.2c-.6 0-1.4-.2-1.4.7V161c0 .4.2.8.1 1.2 0 .1 0 .5-.3.6m-4-131.6h-.9c-.3.2-1 .4-1.1 0-.2-.7 1.3-.6 1.6-.6 1.1 0 2 1 2.8 1.7 1.5 1.6 2.5 3.5 4.7 4 .1 0 1.4.4 1 .7-.2.2-1.3.1-1.6 0-1.8-.7-3-2.6-4.2-4a5.5 5.5 0 0 0-2-1.7h-.3m34.8 38c.2.3-.3.4-.6.3l-1.1-.5a6 6 0 0 1-2.4-2.6c-.9-1.8-1.7-3.6-3.9-3.9-.2 0-.7-.3-.5-.6.1-.3 1-.1 1.2 0a5 5 0 0 1 2.3 1.8c.7 1 1.1 2 1.7 3 .4.5.7 1 1.2 1.3.3.3.8.5 1.2.7.3 0 .6.1.8.3l.1.2M107 28c-.2 0-.2-.2 0-.4.4-.4 1.3-.1 1.8 0a8 8 0 0 1 3.3 1.7c1.3 1 2.7 2.8 4.5 3.3l1 .1c.3 0 .9 0 1 .2 0 .2-.2.2-.4.3H117c-.7 0-1.4-.4-2-.9l-1.9-1.6c-1-1-2.3-1.9-3.7-2.4-.4-.2-.9-.2-1.3-.2l-1-.1M169 151.1l.3-.1c1.3 0 2.6 0 3.8.2l4.2.3c.3 0 .7 0 1 .2.3 0 1 0 .5.4l-.5.1-5.7-.6H170c-.2 0-.6 0-.8-.2-.2 0-.2-.2-.2-.3m-66-91.4c0-.1.2-.2.3-.1.3.1.4.4.6.7l.4 1.2c.1.6 0 .8-.6 1l-.7-.1c-.2 0-.4-.2-.3-.4.3-.2 1-.1 1-.5 0-.3-.3-.8-.5-1l-.2-.6v-.2m-3.5 2.2l.5-.4c.5-.1 1 .3.9.9-.2 1.1-2.2.6-1.4-.5m5.8-2.8c0-.2.2-.3.4-.3.5-.2 1 .2.8.8-.2 1.2-2 .6-1.2-.5m-5.4.9l.7.1c.1 0 .5.3.3.6-.1.2-.7 0-1 0-.4 0-.9.2-1.2.6-.1 0-.7 1-.9.5l.3-.6c.3-.5.7-.8 1.1-1l.7-.2m6.1-2.8c.1 0 .3 0 .5.2s0 .3-.2.3c-.6.1-1 .2-1.4.7 0 .1-.6.7-.6.2 0-.5.4-.9.8-1l.8-.4m16.5 2.1c.2.2 0 .4-.2.5l-.8.4c-.1.1-1 .6-1.2.3 0-.3.7-.6 1-.7l.6-.3.6-.2m-2.1 2.1c0-.1 0-.2.3-.3l1.2-.2h.8c.1 0 .3 0 .3.2 0 .3-1 .4-1.1.4-.4 0-1 .2-1.3 0l-.2-.1m89.2 42.4c-.2.2-.4.2-.7 0a.6.6 0 0 1 0-.8c.2-.4.7-.2.9.2 0 .3 0 .5-.2.6M197 67c0-.3.2-.4.5-.4.5-.2.8.3.6.7-.1.3-.3.4-.5.4-.5 0-.7-.5-.6-.8m-74.7 102.3h-.5l-.4-.3-.6-.7c0-.1-.2-.3-.1-.4 0-.2.2-.2.3-.1l.8.7.4.5v.3m-.4-2.5v-.2c.3 0 .6.3.8.5l.4.5.2.7.2.4c0 .4-.7-.5-.7-.6l-.7-1s-.3-.2-.2-.3" />
      <path fill="#202124" d="M125.7 62.3l-.2-.1h-.7l-1.4.3h-2.7c-.8 0 .2.3 0 .7l-.7 1c0 .2-.3.4-.5.2a25 25 0 0 1-2-4.4c.2-.5.5-.9.8-1.2.3-.3.6-.7 1-.8.2 0 .8 0 .9-.3 0-.2-.3-.3-.4-.3a2 2 0 0 0-1.5.6l-1 1.1c-.5-.4-.6-1.1-1-1.7-.2-.4-.8-.5-1.3-.5h-2a10.4 10.4 0 0 0-7.4 4.2l-.8 1.2-.7 1c-.4.6-1.4 2.1-.7 2.8l1.2 1.2 2 1.8a86.9 86.9 0 0 1 5.3 4.6l1.1 1c.2.2.5.5.7.4l.7-.5.5-.4a132.2 132.2 0 0 0 6-4.6c-.2-.5-.7 0-.9 0l-.8.7-2.8 2-1.5 1.1-1.4 1-.5-.4-3.9-3.5-2.9-2.5a25 25 0 0 1-1.6-1.4c-.4-.4-1-.8-.9-1.3l1.1-2.2a11 11 0 0 1 4-4.3l3-1.4c.9-.2 1.8-.3 2.7-.2.5 0 1 0 1.3.3.3.2.3.5.5.8l.4 1.1 1 2.3 2 5 .7 1.6c0 .2.3.3.4.1V68l-.4-1-.7-1.4 1-1.2.5-1.2c1 .2 1.9.1 2.8 0 .2 0 2-.3 1.7-.8" />
      <path fill="#202124" d="M108.2 57.8v-2c0-.2 0-.8-.3-.6l-.1.6v2c0 .4 0 1.4-.3 1.7l.5-.4c.2-.2.2-1 .2-1.2M152 167.6l-.4.2-.6.5c-.2 0-.6.4-.7.3-.2-.1 0-.3 0-.4l.8-.7.6-.6-.1-.3c-.2-.1-.4 0-.5.1l-.7.5c-.1.1-.3.3-.5.3-.1.1-.3 0-.3-.2s0-.2.2-.3l.7-.5c.2-.2.9-.6.4-.9h-.3l-2.2 1.3a4 4 0 0 0-1.7 3.7l-1 1-6.2 5.4c-.3.3-.8.6-.9 1 0 .2.3.4.5.4s.4-.2.6-.4l.7-.6 1.5-1.4 2.8-2.4 2.7-2.5s1 .3 1.8-.2h.1l1.2-1 1.5-1.8c.1-.2.4-.5 0-.5m12.4-27.4h-.4c-1 .1-1.9.4-2.8.7l-1.5.6-2 1c-2.6 1.2-4.6 3-6.3 5.1a20.3 20.3 0 0 0-2.8 5l-1.1 3.3a17.3 17.3 0 0 0-.1 8.5c0 .3.2 2.2.9 1.7.3-.2 0-.7 0-1l-.3-1.1-.4-2.4c0-1.9 0-3.7.4-5.5a18.3 18.3 0 0 1 10.6-13.4l1.7-.8c.5-.3 1-.4 1.6-.6a20.7 20.7 0 0 1 2.7-.7c.2 0 1.1 0 1-.3 0-.3-.6-.2-.8-.2h-.4" />
      <path fill="#FFF" d="M223 66.4h-.7l-.2.2-1.6.8a138.6 138.6 0 0 0-5.4 3l-1 .5c-.3 0-.7.3-.6.6 0 .1 0 .2.2.2l.4-.2.4-.2.4-.2 3.5-2 1-.5 1.7-1 1-.4.2-.1.5-.3.2-.2v-.2m-44.7 91.1c-.3 0-1.1.5-2 .9l-.1.1a161.4 161.4 0 0 0-2.8 1.5l-1 .5-1.8 1-.7.3-1.8 1-2.6 1.3-1.8 1-1.9 1c-.8.5-1.7 1-2.7 1.4h-.1l-.5.3-.1.3.2.1.5-.1.5-.3 1-.4 3-1.7 3-1.6 1.4-.7 1.9-1 1.4-.7 1-.5.6-.4 1-.5a20 20 0 0 0 4.2-2.3c.2 0 .4-.2.3-.4h-.1" />
      <path fill="#202124" d="M61.7 153.2c-.5 0-1.1.5-1.5.7l-4.6 2-4.6 2.3-8 3.8-2.3 1.2L35 166c-.2 0-1 .5-.7.9.3.3 1-.2 1.2-.3 1-.8 2.3-1.2 3.5-1.7a50 50 0 0 0 3.6-1.7l2.2-1.1 8-3.9 6.8-3.3 1.7-.9c.4-.1 1.4-.6.6-.8h-.2m179.2-91.4c-.2-.1-.3 0-.4 0l-.5.2-2.2 1-2 1-3.5 1.7-1.2.7-1.4.6-.8.5a1 1 0 0 0-.3.4v.4h.1l.6-.2 3.4-1.8 1.5-.8 1.8-.8c1-.6 2.1-1.1 3.2-1.5l1.6-.7c.2-.2.3-.5 0-.7m-48.4 24.4c-.5 0-1 .5-1.5.8l-2.5 1.2-7.2 3.3c-1.5.8-3.1 1.5-4.6 2.4l-4.1 2.2c-1 .7-2.3 1-3.4 1.7l-3.2 1.8-4 2-4.2 2.2-6.6 3.2a481.5 481.5 0 0 0-8.7 4.4l-7.2 4a112 112 0 0 1-3.5 1.7c-1.1.6-2.1 1.3-3.2 1.8l-3.5 2-5 2.3-.5.2c-2.1 1.2-4.2 2.6-6.4 3.6l-2.7 1.3-4.3 2.1-9.7 4.9-2 1-4.5 2.2c-1.6.8-3.1 1.6-4.8 2.3-.4.2-1.5.8-.6 1.2h.2c.8.1 1.6-.7 2.2-1l2.3-1.1c2.3-1.5 4.7-2.5 7-3.7l4-1.7c1.3-.5 2.4-1.3 3.6-1.9l5-2.5c1.6-.7 3-1.7 4.7-2.4 1.7-.7 3.3-1.3 4.8-2.3 1.5-1 3-1.8 4.6-2.7l1.7-.8 4.1-2.2 6-3.3c1-.4 1.9-1 2.9-1.5 1.4-.6 2.5-1.6 3.8-2.1l3.7-1.7c1.1-.6 2.3-1 3.4-1.7 1.3-.9 2.7-1.3 4-2l2-1 3.3-1.7 5.5-2.9 3.8-2 4-2 11.5-5.9 5-2.2 3-1.6c.6-.3 2-.6 2.4-1.2.4-.5-.1-.8-.6-.7M122.5 121c.3-.3.4-1 .5-1.4l.4-1.6.7-3.3.6-2.7.5-2.7.8-3.4 1.5-5.7c0-.3.2-.5.3-.8l1-3.4a45.6 45.6 0 0 1 1.3-5.4c0-.3.2-.6-.2-.6-.3 0-.4.3-.5.6l-.9 3-.9 3.6-1.1 4.3-1.1 3.7v.3c-.5 1.8-.8 3.7-1.2 5.6l-.7 3-.5 2a38 38 0 0 1-1.3 5.1c-.2.5.5.1.7 0v-.1" />
    </g>
  </g>
</svg>
