<svg xmlns="http://www.w3.org/2000/svg" width="380" height="311" viewBox="0 0 380 311"><defs><linearGradient id="m14za" x1="141.46" x2="230.56" y1="49.13" y2="233.65" gradientUnits="userSpaceOnUse"><stop offset="0" stop-color="#ffd3a5"/><stop offset="1" stop-color="#fd6585"/></linearGradient><linearGradient id="m14zb" x1="177" x2="266.11" y1="31.96" y2="216.48" gradientUnits="userSpaceOnUse"><stop offset="0" stop-color="#ffd3a5"/><stop offset="1" stop-color="#fd6585"/></linearGradient><linearGradient id="m14zc" x1="151.05" x2="240.15" y1="44.49" y2="229.02" gradientUnits="userSpaceOnUse"><stop offset="0" stop-color="#ffd3a5"/><stop offset="1" stop-color="#fd6585"/></linearGradient><linearGradient id="m14zd" x1="125.1" x2="214.2" y1="57.03" y2="241.55" gradientUnits="userSpaceOnUse"><stop offset="0" stop-color="#ffd3a5"/><stop offset="1" stop-color="#fd6585"/></linearGradient><linearGradient id="m14ze" x1="115.5" x2="204.6" y1="61.65" y2="246.17" gradientUnits="userSpaceOnUse"><stop offset="0" stop-color="#ffd3a5"/><stop offset="1" stop-color="#fd6585"/></linearGradient><linearGradient id="m14zf" x1="89.55" x2="178.66" y1="74.19" y2="258.71" gradientUnits="userSpaceOnUse"><stop offset="0" stop-color="#ffd3a5"/><stop offset="1" stop-color="#fd6585"/></linearGradient><linearGradient id="m14zg" x1="286.43" x2="329.21" y1="104.14" y2="104.14" gradientUnits="userSpaceOnUse"><stop offset="0" stop-color="#ff81dd"/><stop offset="1" stop-color="#4422c2"/></linearGradient><linearGradient id="m14zh" x1="329.81" x2="300.4" y1="304.02" y2="164.32" gradientUnits="userSpaceOnUse"><stop offset="0" stop-color="#ffaa85"/><stop offset="1" stop-color="#b3315f"/></linearGradient><linearGradient id="m14zi" x1="329.67" x2="300.26" y1="304.05" y2="164.35" gradientUnits="userSpaceOnUse"><stop offset="0" stop-color="#ffaa85"/><stop offset="1" stop-color="#b3315f"/></linearGradient><linearGradient id="m14zj" x1="271.86" x2="246.13" y1="157.42" y2="300.79" gradientUnits="userSpaceOnUse"><stop offset="0" stop-color="#ffaa85"/><stop offset="1" stop-color="#b3315f"/></linearGradient><linearGradient id="m14zk" x1="263.75" x2="238.02" y1="155.96" y2="299.33" gradientUnits="userSpaceOnUse"><stop offset="0" stop-color="#ffaa85"/><stop offset="1" stop-color="#b3315f"/></linearGradient><linearGradient id="m14zl" x1="319.32" x2="256.45" y1="85.98" y2="163.73" gradientUnits="userSpaceOnUse"><stop offset="0" stop-color="#ff81dd"/><stop offset="1" stop-color="#4422c2"/></linearGradient><linearGradient id="m14zm" x1="310.05" x2="247.19" y1="78.49" y2="156.24" gradientUnits="userSpaceOnUse"><stop offset="0" stop-color="#ff81dd"/><stop offset="1" stop-color="#4422c2"/></linearGradient><linearGradient id="m14zn" x1="294.58" x2="231.71" y1="65.98" y2="143.73" gradientUnits="userSpaceOnUse"><stop offset="0" stop-color="#ff81dd"/><stop offset="1" stop-color="#4422c2"/></linearGradient><linearGradient id="m14zo" x1="132.11" x2="4.18" y1="35.94" y2="169.03" gradientUnits="userSpaceOnUse"><stop offset="0" stop-color="#ff81dd"/><stop offset="1" stop-color="#4422c2"/></linearGradient><linearGradient id="m14zp" x1="204.94" x2="260.09" y1="-3.85" y2="49.09" gradientUnits="userSpaceOnUse"><stop offset="0" stop-color="#ff81dd"/><stop offset="1" stop-color="#4422c2"/></linearGradient></defs><g><g><path fill="url(#m14za)" d="M125.272 98.292h60.967V59.198h-60.967z"/></g><g><path fill="#fdc7d7" d="M255.949 66.226h-59.488v-7.028h59.488z"/></g><g><path fill="#fdc7d7" d="M255.949 82.259h-59.488v-7.028h59.488z"/></g><g><path fill="url(#m14zb)" d="M196.461 98.292h21.748v-7.027h-21.748z"/></g><g><path fill="#fdc7d7" d="M255.949 132.498h-59.488v-7.028h59.488z"/></g><g><path fill="#fdc7d7" d="M255.949 148.531h-59.488v-7.028h59.488z"/></g><g><path fill="url(#m14zc)" d="M196.461 164.566h21.748v-7.029h-21.748z"/></g><g><path fill="#fdc7d7" d="M255.949 198.771h-59.488v-7.027h59.488z"/></g><g><path fill="#fdc7d7" d="M255.949 214.804h-59.488v-7.027h59.488z"/></g><g><path fill="url(#m14zd)" d="M196.461 230.837h21.748v-7.029h-21.748z"/></g><g><path fill="url(#m14ze)" d="M125.272 164.566h60.967V125.47h-60.967z"/></g><g><path fill="url(#m14zf)" d="M125.272 230.837h60.967v-39.094h-60.967z"/></g><g><path fill="#fdc7d7" d="M329.212 106.644l18.664 33.914-.005.004c2.993 5.44 1.487 12.378-3.707 16.043-5.194 3.664-12.235 2.758-16.357-1.887l-.005.003-25.694-28.954z"/></g><g><path fill="url(#m14zg)" d="M294.282 85.906c-8.366 5.903-10.363 17.472-4.46 25.84.407.576.844 1.113 1.301 1.629l-.006.006 10.993 12.386 27.102-19.123-7.984-14.508-.007.004a18.719 18.719 0 0 0-1.1-1.774c-3.611-5.119-9.343-7.854-15.165-7.854a18.457 18.457 0 0 0-10.674 3.394z"/></g><g><path fill="#fdc7d7" d="M348.4 141.634c-2.69-6.273-9.959-9.18-16.232-6.49a12.24 12.24 0 0 0-1.392.716l-.005-.011-41.725 24.466-9.626.802 6.09 14.202 8.16-3.498 46.764-13.43-.004-.011c.497-.142.991-.306 1.477-.515 6.276-2.69 9.182-9.956 6.492-16.231z"/></g><g><path fill="url(#m14zh)" d="M293.747 132.477c-13.365 2.786-21.943 15.88-19.157 29.247.143.689.32 1.362.519 2.025h-.008l21.056 70.836.013-.002c2.721 9.143 12.033 14.831 21.538 12.849 9.507-1.98 15.769-10.917 14.61-20.385l.013-.003-8.998-73.35-.008.002a23.964 23.964 0 0 0-.334-2.062c-2.431-11.665-12.713-19.681-24.175-19.682-1.672 0-3.368.171-5.069.525z"/></g><g><path fill="#371a5c" d="M338.135 299.993l1.892 11.043H306.75l13.234-7.259z"/></g><g><path fill="url(#m14zi)" d="M310.142 211.13c-10.025 2.091-16.456 11.912-14.368 21.934.162.78.386 1.527.639 2.259l-.017.005 23.515 68.464 18.297-3.813-5.799-72.159-.015.004a18.851 18.851 0 0 0-.318-2.326c-1.823-8.749-9.536-14.761-18.133-14.761-1.254 0-2.526.128-3.801.393z"/></g><g><path fill="url(#m14zj)" d="M250.578 148.98a23.953 23.953 0 0 0-.561 2.013l-.008-.002-17.08 71.899.013.005c-2.203 9.279 3.028 18.855 12.258 21.879 9.23 3.024 19.111-1.599 22.831-10.382l.013.004 28.785-68.063-.007-.002a25.9 25.9 0 0 0 .741-1.954c4.25-12.975-2.822-26.94-15.795-31.191a24.715 24.715 0 0 0-7.701-1.236c-10.399 0-20.076 6.611-23.489 17.03z"/></g><g><path fill="#371a5c" d="M254.966 301.79l-.657 9.246h-33.906l16.069-10.56z"/></g><g><path fill="url(#m14zk)" d="M232.481 225.84a18.403 18.403 0 0 0-.005 2.348l-.017-.002 3.938 72.285 18.644 1.323 14.114-71-.015-.002c.151-.76.273-1.532.329-2.324.726-10.214-6.966-19.081-17.182-19.807a18.628 18.628 0 0 0-1.332-.048c-9.642 0-17.78 7.461-18.474 17.227z"/></g><g><path fill="url(#m14zl)" d="M267.89 82.514a15.429 15.429 0 0 0-11.842 5.543c-3.254 3.895-6.7 9.561-6.7 16.09 0 4.33 2.231 8.133 5.604 10.341 9.847 11.289-5.604 23.649-5.604 42.191 31.987 10.274 62.652 18.682 74.163 0 0-11.569-5.171-40.419-11.125-68.429a7.232 7.232 0 0 0-7.07-5.736z"/></g><g><g><path fill="url(#m14zm)" d="M266.042 119.202h-8.376c3.176 10.078-8.318 21.475-8.318 37.476a606.82 606.82 0 0 0 13.551 4.206c1.275-17.155 14.893-28.905 5.499-39.673a12.438 12.438 0 0 1-2.356-2.009z"/></g></g><g><path fill="#fdc7d7" d="M280.25 82.514h15.451V60.883H280.25z"/></g><g><path fill="#fdc7d7" d="M263.182 69.996l14.396 5.611c7.95 3.1 16.908-.833 20.007-8.784 3.099-7.95-.833-16.908-8.784-20.007-7.951-3.099-16.908.833-20.007 8.784z"/></g><g><path fill="#371a5c" d="M273.283 44.084a3.09 3.09 0 0 0 1.757 4.001l2.785 6.346a14.926 14.926 0 0 0 8.244 7.903l-2.245 5.759a6.18 6.18 0 0 0 11.517 4.489l2.244-5.759c3.099-7.95-.833-16.908-8.784-20.007l-11.517-4.489a3.089 3.089 0 0 0-4.001 1.757z"/></g><g><path fill="#fdc7d7" d="M288.947 63.456a3.089 3.089 0 1 1-5.758-2.244 3.09 3.09 0 1 1 5.758 2.244z"/></g><g><path fill="#371a5c" d="M307.331 52.136c.208-.065.42-.126.635-.182.03-.007.057-.017.087-.024v.002c4.334-1.091 9.88-.236 12.168 2.026 2.031 2.009 3.333 5.168 6.134 5.729 2.286.459 4.422-1.087 6.577-1.978 6.226-2.576 14.265 1.16 16.31 7.582.875 2.749.822 5.899 2.573 8.193 1.585 2.077 4.311 2.944 6.912 3.197 2.601.252 5.242.01 7.822.423 5.167.826 9.801 4.446 11.853 9.26 2.052 4.814 1.455 10.664-1.527 14.964-5.06 7.298-15.847 8.883-24.004 5.37-8.157-3.511-13.973-10.982-18.047-18.874-1.393-2.7-2.958-5.772-5.88-6.598-4.364-1.234-8.936 3.382-13.202 1.845-3.045-1.097-4.232-4.767-4.509-7.992-.31-3.616-.136-7.491-2.786-10.322a7.204 7.204 0 0 0-.704-.646c-5.71-3.982-12.472-.175-12.472-.175l-2.583-2.6s5.578-6.662 14.643-9.2z"/></g><g><path fill="#fdc7d7" d="M262.053 125.237l-34.104 18.315-.003-.003c-5.472 2.937-12.393 1.36-16.004-3.872-3.61-5.23-2.633-12.262 2.054-16.336l-.004-.005 29.216-25.397z"/></g><g><path fill="url(#m14zn)" d="M257.356 85.798c-.58.4-1.124.831-1.644 1.284l-.006-.006-12.497 10.863 18.843 27.299 14.591-7.837-.006-.006a19.251 19.251 0 0 0 1.787-1.081c8.426-5.818 10.54-17.366 4.724-25.792-3.598-5.211-9.389-8.008-15.276-8.009a18.45 18.45 0 0 0-10.516 3.285z"/></g><g><path fill="#fdc7d7" d="M229.161 122.5a12.24 12.24 0 0 0-1.345-.8l.007-.01L184.95 99.3l-5.788-7.734-8.807 12.695 7.293 5.061 36.193 32.518.007-.009c.384.346.786.678 1.221.98 5.608 3.891 13.31 2.5 17.201-3.109 3.893-5.608 2.5-13.31-3.108-17.202z"/></g><g><path fill="url(#m14zo)" d="M26.266 153.566a3.01 3.01 0 0 1 3.005 3.005 3.009 3.009 0 0 1-3.005 3.004 3.007 3.007 0 0 1-3.006-3.004 3.008 3.008 0 0 1 3.006-3.005zm64.452 0a3.008 3.008 0 0 1 3.005 3.005 3.008 3.008 0 0 1-3.005 3.004 3.007 3.007 0 0 1-3.004-3.004 3.008 3.008 0 0 1 3.004-3.005zm-71.522-44.513h32.563v11.573H22.09zm43.246 0h32.563l-2.892 11.573H62.442zM13.631 86.796h38.128V98.37H16.525zm48.811 0h38.128L97.676 98.37H62.442zm46.363-32.94l-5.564 22.257H-.052l13.8 55.197H89.44l-2.891 11.573H26.266a5.81 5.81 0 0 0-.548.028c-7.293.291-13.142 6.297-13.142 13.66 0 7.546 6.141 13.687 13.69 13.687 7.547 0 13.686-6.141 13.686-13.687 0-1.033-.124-2.036-.343-3.005h37.764a13.723 13.723 0 0 0-.342 3.005c0 7.546 6.141 13.687 13.687 13.687 7.549 0 13.688-6.141 13.688-13.687 0-5.223-2.939-9.765-7.25-12.072l19.991-79.961h18.085a5.342 5.342 0 0 0 0-10.682z"/></g><g><path fill="#fff" d="M255.949 42.337H13.312V.282h242.637z"/></g><g><path fill="#fdc7d7" d="M254.268 40.656H14.994V1.963h239.274zM255.949.282H13.313v42.055h242.636z"/></g><g><path fill="url(#m14zp)" d="M206.345 42.337h49.604V.282h-49.604z"/></g><g><path fill="#fff" d="M219.447 28.616c-4.988-4.987-4.988-13.1-.001-18.088 4.988-4.99 13.102-4.988 18.089 0a12.705 12.705 0 0 1 3.746 9.044c0 3.416-1.331 6.63-3.747 9.044a12.75 12.75 0 0 1-9.043 3.74 12.752 12.752 0 0 1-9.044-3.74zm3.8-14.288c-2.89 2.892-2.89 7.596 0 10.487 2.89 2.892 7.597 2.892 10.486 0a7.364 7.364 0 0 0 2.172-5.243 7.37 7.37 0 0 0-2.171-5.244h-.001a7.39 7.39 0 0 0-5.242-2.167 7.397 7.397 0 0 0-5.244 2.167z"/></g><g><path fill="#fff" d="M242.004 36.887l-8.27-8.271 3.801-3.8 8.271 8.27z"/></g></g></svg>