<svg xmlns="http://www.w3.org/2000/svg" width="320" height="368" viewBox="0 0 320 368"><defs><linearGradient id="nuc3a" x1="233.88" x2="257.77" y1="260.23" y2="260.23" gradientUnits="userSpaceOnUse"><stop offset="0" stop-color="#ffaa85"/><stop offset="1" stop-color="#b3315f"/></linearGradient><linearGradient id="nuc3b" x1="167.69" x2="304.01" y1="40.26" y2="126.93" gradientUnits="userSpaceOnUse"><stop offset="0" stop-color="#fdc7d7"/><stop offset="0" stop-color="#f773ab"/><stop offset="1" stop-color="#8f28ab"/></linearGradient><linearGradient id="nuc3c" x1="124.53" x2="73.41" y1="133.78" y2="134.1" gradientUnits="userSpaceOnUse"><stop offset="0" stop-color="#ff81dd"/><stop offset="1" stop-color="#4422c2"/></linearGradient><linearGradient id="nuc3d" x1="74.93" x2="107.75" y1="358.7" y2="197.56" gradientUnits="userSpaceOnUse"><stop offset="0" stop-color="#ffaa85"/><stop offset="1" stop-color="#b3315f"/></linearGradient><linearGradient id="nuc3e" x1="74.55" x2="107.37" y1="358.63" y2="197.48" gradientUnits="userSpaceOnUse"><stop offset="0" stop-color="#ffaa85"/><stop offset="1" stop-color="#b3315f"/></linearGradient><linearGradient id="nuc3f" x1="139.98" x2="167.75" y1="200.45" y2="356.54" gradientUnits="userSpaceOnUse"><stop offset="0" stop-color="#ffaa85"/><stop offset="1" stop-color="#b3315f"/></linearGradient><linearGradient id="nuc3g" x1="149.2" x2="176.97" y1="198.81" y2="354.9" gradientUnits="userSpaceOnUse"><stop offset="0" stop-color="#ffaa85"/><stop offset="1" stop-color="#b3315f"/></linearGradient><linearGradient id="nuc3h" x1="88.04" x2="159.67" y1="118.84" y2="203.73" gradientUnits="userSpaceOnUse"><stop offset="0" stop-color="#ff81dd"/><stop offset="1" stop-color="#4422c2"/></linearGradient><linearGradient id="nuc3i" x1="99.07" x2="170.69" y1="109.56" y2="194.43" gradientUnits="userSpaceOnUse"><stop offset="0" stop-color="#ff81dd"/><stop offset="1" stop-color="#4422c2"/></linearGradient><linearGradient id="nuc3j" x1="116.76" x2="188.39" y1="94.61" y2="179.5" gradientUnits="userSpaceOnUse"><stop offset="0" stop-color="#ff81dd"/><stop offset="1" stop-color="#4422c2"/></linearGradient></defs><g><g><path fill="#fff" d="M237.792 118.545c0 65.532-53.125 118.656-118.656 118.656C53.604 237.2.48 184.077.48 118.545.48 53.014 53.604-.11 119.136-.11c65.531 0 118.656 53.124 118.656 118.655z"/></g><g><path fill="#371a5c" d="M316.639 276.115h-141.62a3.315 3.315 0 0 1-3.315-3.315V25.287a3.315 3.315 0 0 1 3.315-3.315h141.62a3.315 3.315 0 0 1 3.315 3.315V272.8a3.315 3.315 0 0 1-3.315 3.315z"/></g><g><path fill="url(#nuc3a)" d="M245.828 250.997c5.091 0 9.235 4.146 9.235 9.236 0 5.09-4.144 9.232-9.235 9.232-5.09 0-9.234-4.142-9.234-9.232 0-5.09 4.144-9.236 9.234-9.236zm0 21.18c6.588 0 11.944-5.357 11.944-11.944 0-6.587-5.356-11.946-11.944-11.946-6.584 0-11.943 5.359-11.943 11.946s5.359 11.944 11.943 11.944z"/></g><g><path fill="#f587a4" d="M297.01 27.268l-3.53 5.294h-95.303l-3.53-5.294H177v217.079h137.66V27.267z"/></g><g><path fill="url(#nuc3b)" d="M297.011 27.267l-3.531 5.294h-95.303l-3.529-5.294h-17.649v125.337l137.659-45.079V27.267z"/></g><g><path fill="#fdc7d7" d="M74.05 125.318L38.863 151.21l.003.005c-5.644 4.154-7.39 11.973-3.806 18.188 3.583 6.214 11.224 8.622 17.648 5.82l.003.004 40.036-17.478z"/></g><g><path fill="url(#nuc3c)" d="M91.076 112.956a20.97 20.97 0 0 0-1.969 1.295l-.004-.009-15.052 11.076 18.695 32.431 17.128-7.478-.005-.009a21.13 21.13 0 0 0 2.108-1.053c10.009-5.772 13.447-18.567 7.674-28.577-3.874-6.718-10.911-10.476-18.145-10.477-3.546 0-7.138.902-10.43 2.801z"/></g><g><path fill="#fdc7d7" d="M99.229 204.706l-9.477-5.384-31.14-44.83-.01.008c-.331-.48-.686-.948-1.085-1.393-5.153-5.728-13.972-6.195-19.7-1.045-5.729 5.152-6.196 13.972-1.044 19.701.399.444.829.845 1.27 1.226l-.011.01 41.533 35.916 6.699 7.45z"/></g><g><path fill="url(#nuc3d)" d="M81.188 188.161c-.16.777-.282 1.552-.377 2.328l-.006-.002-10.157 82.775.015.005c-1.309 10.683 5.757 20.768 16.488 23.004 10.729 2.237 21.237-4.184 24.304-14.503l.017.004 23.762-79.939h-.008c.223-.75.424-1.508.586-2.285 3.144-15.085-6.535-29.862-21.619-33.005a28.052 28.052 0 0 0-5.723-.593c-12.934 0-24.537 9.046-27.282 22.211z"/></g><g><path fill="#371a5c" d="M64.1 355.586l-2.135 12.462h37.553l-14.935-8.192z"/></g><g><path fill="url(#nuc3e)" d="M70.938 271.519c-.184.877-.29 1.752-.357 2.623l-.022-.005-6.542 81.432 20.65 4.305 26.536-77.263-.019-.005a21.16 21.16 0 0 0 .721-2.549c2.357-11.313-4.902-22.395-16.215-24.754a21.003 21.003 0 0 0-4.289-.444c-9.702-.001-18.406 6.785-20.463 16.66z"/></g><g><path fill="url(#nuc3f)" d="M127.711 167.342c-14.643 4.798-22.622 20.558-17.825 35.199.247.756.531 1.488.837 2.205l-.009.004 32.485 76.811.015-.007c4.194 9.914 15.349 15.128 25.764 11.717 10.414-3.412 16.319-14.219 13.832-24.692l.015-.007-19.276-81.137-.006.004a29.775 29.775 0 0 0-.633-2.272c-3.854-11.757-14.774-19.219-26.507-19.22-2.88 0-5.806.449-8.692 1.395z"/></g><g><path fill="#371a5c" d="M157.957 357.612l.742 10.436h38.262l-18.133-11.918z"/></g><g><path fill="url(#nuc3g)" d="M160.98 252.515c-11.528.821-20.207 10.828-19.391 22.354.065.895.202 1.766.373 2.623h-.019l15.929 80.127 21.039-1.495 4.445-81.573-.022.002c.05-.873.063-1.755-.002-2.649-.783-11.021-9.968-19.441-20.848-19.442a20.56 20.56 0 0 0-1.504.053z"/></g><g><path fill="url(#nuc3h)" d="M101.993 110.159a9.216 9.216 0 0 0-9.013 7.311c-6.645 31.345-12.379 63.445-12.379 76.383 19.285 20.29 50.756 11.872 83.696 0 0-20.922-17.437-34.872-6.323-47.611 3.804-2.491 6.323-6.784 6.323-11.673 0-7.365-3.891-13.759-7.562-18.154a17.41 17.41 0 0 0-13.363-6.256z"/></g><g><g><path fill="url(#nuc3i)" d="M156.781 147.79h-9.234a14.027 14.027 0 0 1-4.701 5.175c-10.837 12.422 5.464 25.997 6.283 46.064 4.994-1.58 10.063-3.336 15.167-5.175 0-20.08-16.042-33.736-7.515-46.064z"/></g></g><g><path fill="#fdc7d7" d="M129.423 110.159h-17.437V85.748h17.437z"/></g><g><path fill="#fdc7d7" d="M144.316 102.746l-17.418.792c-9.62.437-17.773-7.008-18.21-16.628-.437-9.62 7.007-17.772 16.627-18.21 9.62-.436 17.773 7.008 18.21 16.628z"/></g><g><path fill="#371a5c" d="M142.892 71.394a3.488 3.488 0 0 1-3.325 3.642l-5.274 5.775a16.834 16.834 0 0 1-11.67 5.467l.316 6.968a6.974 6.974 0 1 1-13.934.632l-.317-6.967c-.437-9.621 7.007-17.773 16.627-18.21l13.935-.633a3.487 3.487 0 0 1 3.642 3.326z"/></g><g><path fill="#fdc7d7" d="M119.14 86.436a3.488 3.488 0 1 0 6.968-.318 3.488 3.488 0 0 0-6.969.317z"/></g><g><path fill="#371a5c" d="M103.583 67.684a14.411 14.411 0 0 0-.613-.423c-.029-.018-.055-.04-.084-.058l-.001.002c-4.239-2.733-10.474-3.826-13.74-2.235-2.898 1.412-5.432 4.318-8.629 3.904-2.61-.336-4.334-2.761-6.315-4.493-5.724-5.006-15.669-3.92-20.178 2.205-1.93 2.622-3.013 6.008-5.713 7.827-2.447 1.647-5.675 1.588-8.546.917-2.871-.671-5.607-1.885-8.514-2.377-5.823-.987-12.085 1.208-16.021 5.61-3.935 4.405-5.412 10.874-3.78 16.55 2.77 9.632 13.726 15.227 23.717 14.424 9.99-.804 18.908-6.686 26.118-13.648 2.466-2.381 5.25-5.101 8.674-4.926 5.11.26 8.328 6.847 13.444 6.747 3.652-.071 6.247-3.565 7.71-6.912 1.641-3.753 2.855-7.958 6.712-10.026.307-.164.641-.306.987-.437 7.544-2.19 13.395 4.326 13.395 4.326l3.701-1.844s-3.552-9.14-12.324-15.133z"/></g><g><path fill="#fdc7d7" d="M158.621 154.653l43.158 6.765.002-.006c6.924 1.084 13.705-3.182 15.597-10.1 1.891-6.92-1.778-14.043-8.29-16.632l.002-.006-40.599-16.129z"/></g><g><path fill="url(#nuc3j)" d="M123.188 125.564c-3.045 11.147 3.52 22.656 14.667 25.701.769.211 1.536.364 2.307.485l-.004.009 18.464 2.894 9.868-36.109-17.368-6.898-.002.008a21.33 21.33 0 0 0-2.231-.754 20.975 20.975 0 0 0-5.529-.746c-9.197 0-17.629 6.112-20.172 15.41z"/></g><g><path fill="#fdc7d7" d="M234.528 88.455l-16.24-6.346-.553 10.886-26.062 47.962.012.004a13.83 13.83 0 0 0-.755 1.597c-2.804 7.175.742 15.265 7.917 18.068 7.176 2.804 15.264-.74 18.07-7.917.216-.558.382-1.12.525-1.686l.011.004 13.43-53.24z"/></g></g></svg>