<svg xmlns="http://www.w3.org/2000/svg" width="417" height="353" viewBox="0 0 417 353"><defs><linearGradient id="a9u0a" x1="120.86" x2="165.96" y1="136.64" y2="136.64" gradientUnits="userSpaceOnUse"><stop offset="0" stop-color="#ff81dd"/><stop offset="1" stop-color="#4422c2"/></linearGradient><linearGradient id="a9u0b" x1="186.67" x2="136.08" y1="339.11" y2="198.28" gradientUnits="userSpaceOnUse"><stop offset="0" stop-color="#ffaa85"/><stop offset="1" stop-color="#b3315f"/></linearGradient><linearGradient id="a9u0c" x1="191.79" x2="141.2" y1="337.27" y2="196.44" gradientUnits="userSpaceOnUse"><stop offset="0" stop-color="#ffaa85"/><stop offset="1" stop-color="#b3315f"/></linearGradient><linearGradient id="a9u0d" x1="120.57" x2="29.17" y1="205.09" y2="296.48" gradientUnits="userSpaceOnUse"><stop offset="0" stop-color="#ffaa85"/><stop offset="1" stop-color="#b3315f"/></linearGradient><linearGradient id="a9u0e" x1="154.43" x2="90.05" y1="119.58" y2="200.06" gradientUnits="userSpaceOnUse"><stop offset="0" stop-color="#ff81dd"/><stop offset="1" stop-color="#4422c2"/></linearGradient><linearGradient id="a9u0f" x1="144.71" x2="76.91" y1="104.84" y2="189.59" gradientUnits="userSpaceOnUse"><stop offset="0" stop-color="#ff81dd"/><stop offset="1" stop-color="#4422c2"/></linearGradient><linearGradient id="a9u0g" x1="123.47" x2="32.08" y1="207.99" y2="299.39" gradientUnits="userSpaceOnUse"><stop offset="0" stop-color="#ffaa85"/><stop offset="1" stop-color="#b3315f"/></linearGradient><linearGradient id="a9u0h" x1="124.82" x2="60.44" y1="95.89" y2="176.37" gradientUnits="userSpaceOnUse"><stop offset="0" stop-color="#ff81dd"/><stop offset="1" stop-color="#4422c2"/></linearGradient><linearGradient id="a9u0i" x1="236.06" x2="306" y1="183.92" y2="183.92" gradientUnits="userSpaceOnUse"><stop offset="0" stop-color="#ff81dd"/><stop offset="1" stop-color="#4422c2"/></linearGradient><linearGradient id="a9u0j" x1="287.97" x2="321.69" y1="351.8" y2="196.6" gradientUnits="userSpaceOnUse"><stop offset="0" stop-color="#ffaa85"/><stop offset="1" stop-color="#b3315f"/></linearGradient><linearGradient id="a9u0k" x1="288.66" x2="322.38" y1="351.95" y2="196.75" gradientUnits="userSpaceOnUse"><stop offset="0" stop-color="#ffaa85"/><stop offset="1" stop-color="#b3315f"/></linearGradient><linearGradient id="a9u0l" x1="351.68" x2="394.98" y1="190.54" y2="350.34" gradientUnits="userSpaceOnUse"><stop offset="0" stop-color="#ffaa85"/><stop offset="1" stop-color="#b3315f"/></linearGradient><linearGradient id="a9u0m" x1="307.1" x2="372.63" y1="108.65" y2="190.28" gradientUnits="userSpaceOnUse"><stop offset="0" stop-color="#ff81dd"/><stop offset="1" stop-color="#4422c2"/></linearGradient><linearGradient id="a9u0n" x1="271.53" x2="288.96" y1="119.4" y2="136.26" gradientUnits="userSpaceOnUse"><stop offset="0" stop-color="#ffaa85"/><stop offset="1" stop-color="#b3315f"/></linearGradient><linearGradient id="a9u0o" x1="393.06" x2="310.86" y1="114.22" y2="204.47" gradientUnits="userSpaceOnUse"><stop offset="0" stop-color="#ff81dd"/><stop offset="1" stop-color="#4422c2"/></linearGradient><linearGradient id="a9u0p" x1="351.46" x2="394.76" y1="190.6" y2="350.4" gradientUnits="userSpaceOnUse"><stop offset="0" stop-color="#ffaa85"/><stop offset="1" stop-color="#b3315f"/></linearGradient><linearGradient id="a9u0q" x1="393.21" x2="311.01" y1="114.31" y2="204.56" gradientUnits="userSpaceOnUse"><stop offset="0" stop-color="#ff81dd"/><stop offset="1" stop-color="#4422c2"/></linearGradient><linearGradient id="a9u0r" x1="275.98" x2="293.3" y1="83.56" y2="98.09" gradientUnits="userSpaceOnUse"><stop offset="0" stop-color="#ffaa85"/><stop offset="1" stop-color="#b3315f"/></linearGradient><linearGradient id="a9u0s" x1="252.16" x2="265.74" y1="102.81" y2="114.2" gradientUnits="userSpaceOnUse"><stop offset="0" stop-color="#ffaa85"/><stop offset="1" stop-color="#b3315f"/></linearGradient><linearGradient id="a9u0t" x1="239.52" x2="249.29" y1="75.39" y2="83.59" gradientUnits="userSpaceOnUse"><stop offset="0" stop-color="#ffaa85"/><stop offset="1" stop-color="#b3315f"/></linearGradient><linearGradient id="a9u0u" x1="321.8" x2="360.02" y1="69.59" y2="84.4" gradientUnits="userSpaceOnUse"><stop offset="0" stop-color="#ffaa85"/><stop offset="1" stop-color="#b3315f"/></linearGradient></defs><g><g><path fill="#fff" d="M237.861 118.636c0 65.532-53.124 118.656-118.656 118.656C53.675 237.292.55 184.168.55 118.636.55 53.105 53.674-.02 119.205-.02c65.532 0 118.656 53.124 118.656 118.655z"/></g><g><path fill="#fff" d="M417 99.605c0 41.09-33.311 74.401-74.402 74.401s-74.403-33.31-74.403-74.401c0-41.092 33.312-74.402 74.403-74.402 41.091 0 74.402 33.31 74.402 74.402z"/></g><g><path fill="#fdc7d7" d="M136.598 159.492l26.178 31.555.005-.003c4.2 5.062 11.622 6.27 17.249 2.573 5.627-3.695 7.466-10.986 4.489-16.852l.005-.003-18.562-36.558z"/></g><g><path fill="url(#a9u0a)" d="M129.716 117.021c-9.063 5.955-11.587 18.128-5.632 27.196a20.85 20.85 0 0 0 1.321 1.772l-.006.004 11.198 13.499 29.364-19.287-7.939-15.639-.008.004a19.588 19.588 0 0 0-1.103-1.917c-3.77-5.741-10.038-8.858-16.43-8.858a19.542 19.542 0 0 0-10.765 3.226z"/></g><g><path fill="#fdc7d7" d="M231.086 206.573l-9.974-2.274-40.114-31.866-.005.01c-.428-.34-.874-.665-1.354-.957-6.178-3.754-14.232-1.788-17.986 4.392-3.754 6.178-1.79 14.231 4.39 17.985.48.292.975.536 1.474.76l-.007.011 47.043 21.043 8.035 4.881z"/></g><g><path fill="url(#a9u0b)" d="M123.417 168.377c-13.239 5.819-19.255 21.267-13.434 34.506.301.683.632 1.341.981 1.985l-.007.004 37.357 68.778.013-.004c4.824 8.876 15.719 12.728 25.135 8.59 9.416-4.139 13.946-14.773 10.666-24.327l.015-.007-25.414-74.028-.009.002a26.023 26.023 0 0 0-.797-2.064c-4.312-9.811-13.914-15.653-23.984-15.654-3.519 0-7.094.713-10.522 2.219z"/></g><g><path fill="#371a5c" d="M181.622 341.773l3.17 9.293h34.075l-18.658-15.632z"/></g><g><path fill="url(#a9u0c)" d="M159.222 245.672c-10.265 3.501-15.749 14.661-12.247 24.926.271.795.605 1.553.964 2.289l-.017.007 33.626 68.905 18.735-6.389-15.481-75.093-.02.005a19.81 19.81 0 0 0-.634-2.403c-2.784-8.164-10.416-13.303-18.586-13.303-2.102 0-4.239.34-6.34 1.056z"/></g><g><path fill="url(#a9u0d)" d="M82.166 186.863a25.629 25.629 0 0 0-.364 2.181h-.009l-9.962 77.633.013.005c-1.284 10.02 5.298 19.52 15.354 21.675 10.059 2.156 19.954-3.816 22.886-13.483l.016.002 22.72-74.899-.009-.002c.212-.7.403-1.413.559-2.141 3.03-14.14-5.976-28.059-20.117-31.09a26.337 26.337 0 0 0-5.509-.586c-12.084 0-22.944 8.412-25.578 20.705z"/></g><g><path fill="url(#a9u0e)" d="M94.677 113.796c-6.836 31.472-13.092 65.46-13.092 78.552 33.323 9.535 67.669 20.428 78.551 0 0-19.638-16.364-32.73-5.935-44.685 3.572-2.339 5.935-6.368 5.935-10.954 0-7.05-3.795-13.15-7.299-17.281-3.063-3.609-7.603-5.632-12.338-5.632z"/></g><g><g><path fill="url(#a9u0f)" d="M88.68 142.971c-4.105 21.288-7.094 40.326-7.094 49.377 5.068 1.45 10.159 2.93 15.187 4.328-3.622-9.009-2.791-25.778 14.429-52.469z"/></g></g><g><path fill="#fdc7d7" d="M120.861 113.797h-16.365v-22.91h16.365z"/></g><g><path fill="#371a5c" d="M12.446 262.326l-9.812.373 1.368 35.977 9.19-16.726z"/></g><g><path fill="url(#a9u0g)" d="M90.566 249.533c-.841.03-1.662.132-2.47.266l-.002-.017-75.651 12.466.752 19.78 76.381 6.689v-.017a19.65 19.65 0 0 0 2.482.078c10.837-.412 19.289-9.531 18.878-20.368-.402-10.584-9.107-18.891-19.608-18.892-.253 0-.507.005-.762.015z"/></g><g><path fill="#fdc7d7" d="M69.324 140.219l-18.54 36.568.004.003c-2.975 5.867-1.13 13.157 4.498 16.85 5.63 3.693 13.05 2.48 17.248-2.583l.005.003 26.16-31.57z"/></g><g><path fill="url(#a9u0h)" d="M78.364 122.664a19.557 19.557 0 0 0-1.1 1.917l-.009-.006-7.932 15.643 29.376 19.272 11.191-13.506-.007-.004c.466-.563.912-1.148 1.319-1.772 5.95-9.069 3.423-21.243-5.647-27.193a19.537 19.537 0 0 0-10.752-3.221c-6.396 0-12.667 3.122-16.439 8.87z"/></g><g><path fill="#fdc7d7" d="M65.922 170.065c-6.974-1.908-14.174 2.198-16.082 9.173a13.503 13.503 0 0 0-.325 1.625l-.011-.003-7.28 51.018-2.482 9.068 15.785 4.32-.56-10.215 19.593-47.336-.012-.004c.209-.504.399-1.022.548-1.563 1.907-6.974-2.2-14.175-9.174-16.083z"/></g><g><path fill="#fdc7d7" d="M133.953 107.251h-16.365c-9.038 0-16.364-7.326-16.364-16.364s7.326-16.365 16.364-16.365 16.365 7.327 16.365 16.365z"/></g><g><path fill="#371a5c" d="M133.953 77.795a3.272 3.272 0 0 1-3.273 3.272l-5.19 5.19a15.802 15.802 0 0 1-11.175 4.63v6.546a6.545 6.545 0 0 1-13.091 0v-6.546c0-9.038 7.326-16.365 16.364-16.365h13.092a3.273 3.273 0 0 1 3.273 3.273z"/></g><g><path fill="#fdc7d7" d="M111.042 90.887a3.272 3.272 0 1 0 6.545 0 3.272 3.272 0 0 0-6.545 0z"/></g><g><path fill="#371a5c" d="M97.256 72.644a13.151 13.151 0 0 0-.557-.424c-.026-.018-.05-.04-.076-.057l-.001.002c-3.858-2.744-9.658-4.034-12.787-2.681-2.778 1.2-5.277 3.817-8.257 3.294-2.432-.428-3.946-2.775-5.73-4.483-5.153-4.937-14.524-4.341-19.011 1.208-1.921 2.376-3.081 5.505-5.69 7.095-2.364 1.44-5.388 1.247-8.051.496-2.664-.752-5.177-2.007-7.882-2.592-5.417-1.172-11.382.618-15.26 4.579-3.876 3.96-5.537 9.963-4.248 15.354 2.187 9.148 12.22 14.862 21.62 14.534 9.402-.328 18.014-5.463 25.07-11.683 2.414-2.127 5.139-4.56 8.342-4.25 4.78.462 7.516 6.775 12.318 6.899 3.427.089 6.01-3.076 7.523-6.152 1.698-3.45 3.016-7.34 6.72-9.115a7.98 7.98 0 0 1 .944-.366c7.166-1.733 12.374 4.625 12.374 4.625l3.549-1.571s-2.941-8.721-10.91-14.712z"/></g><g><path fill="#feb407" d="M325.804 108.713c-9.841-4.541-21.5-.245-26.041 9.595a20.354 20.354 0 0 0-.805 2.057l-.007-.004-5.531 16.632-12.928 38.877.006.003c-2.073 6.237.825 13.17 6.933 15.989 6.108 2.819 13.263.526 16.664-5.098l.006.002 21.195-35.062 9.068-15-.01-.004c.378-.623.73-1.268 1.045-1.946 4.54-9.841.246-21.5-9.595-26.041z"/></g><g><path fill="url(#a9u0i)" d="M289.307 167.407c-.539.154-1.052.351-1.555.566l-.002-.012-47.726 20.425.002.006a6.538 6.538 0 0 0-3.708 7.807 6.541 6.541 0 0 0 7.282 4.659v.004l51.298-7.945-.002-.013a13.002 13.002 0 0 0 1.618-.344c6.947-1.989 10.965-9.234 8.974-16.179-1.645-5.742-6.881-9.483-12.57-9.484-1.194 0-2.406.165-3.611.51z"/></g><g><path fill="#fdc7d7" d="M240.805 188.108l-10.333-.44 4.505 15.72 9.432-2.703z"/></g><g><path fill="url(#a9u0j)" d="M298.505 180.081a26.43 26.43 0 0 0-.354 2.183l-.006-.002-9.47 77.639.015.003c-1.222 10.022 5.415 19.475 15.477 21.565 10.063 2.091 19.915-3.938 22.787-13.618l.013.004 22.235-74.988h-.009a26.37 26.37 0 0 0 .546-2.144c2.94-14.149-6.147-28.001-20.296-30.941a26.317 26.317 0 0 0-5.346-.551c-12.14-.001-23.026 8.495-25.592 20.85z"/></g><g><path fill="url(#a9u0k)" d="M288.714 259.512c-.117.842-.145 1.627-.176 2.469l-1.133 76.632h.087l-17.552 12.466h35.628l1.367-9.734.056.03 20.113-73.959h-.031c.204-.784.407-1.599.522-2.413 1.512-10.753-5.957-20.663-16.709-22.172a19.76 19.76 0 0 0-2.762-.195c-9.618.001-18.031 7.08-19.41 16.876z"/></g><g><path fill="url(#a9u0l)" d="M344.616 159.858c-14.107 3.132-23.004 17.108-19.871 31.216.16.725.357 1.436.574 2.134l-.007.001 23.257 74.677.016-.002c3.004 9.637 12.936 15.531 22.969 13.304 10.033-2.229 16.538-11.771 15.182-21.776l.013-.002-10.529-77.503-.009.002a26.514 26.514 0 0 0-.381-2.179c-2.708-12.197-13.523-20.499-25.518-20.5-1.879 0-3.785.204-5.696.628z"/></g><g><path fill="url(#a9u0m)" d="M356.829 106.908h-39.248c-10.839 0-19.625 8.786-19.625 19.623v58.87h78.495v-78.493z"/></g><g><path fill="#fdc7d7" d="M337.204 106.907h16.354V84.013h-16.354z"/></g><g><path fill="#fdc7d7" d="M324.122 100.366h16.353c9.032 0 16.353-7.32 16.353-16.353 0-9.032-7.32-16.353-16.353-16.353-9.032 0-16.353 7.321-16.353 16.353z"/></g><g><path fill="#371a5c" d="M343.745 87.284v3.271a6.542 6.542 0 0 0 13.083 0v-6.542c0-9.032-7.32-16.353-16.354-16.353h-4.013a4.905 4.905 0 0 0 0 9.811h4.013l-3.27 6.542h3.27z"/></g><g><path fill="#fdc7d7" d="M340.475 84.014a3.272 3.272 0 1 0 6.543-.002 3.272 3.272 0 0 0-6.543.002z"/></g><g><path fill="#371a5c" d="M337.204 87.284v-3.27h3.271v16.352a3.27 3.27 0 0 1-3.27 3.271h-9.813a3.27 3.27 0 0 1-3.27-3.27v-9.812h9.811a3.271 3.271 0 0 0 3.271-3.27z"/></g><g><path fill="#371a5c" d="M317.579 193.068h-81.99v-68.883h81.99z"/></g><g><path fill="url(#a9u0n)" d="M268.528 124.185l16.111 15.797v-15.797z"/></g><g><path fill="url(#a9u0o)" d="M359.131 117.305c-.35.659-.652 1.33-.92 2.008l-.007-.004-6.47 16.289-15.126 38.078.005.002c-2.424 6.108.073 13.196 6.011 16.358 5.937 3.163 13.211 1.283 16.928-4.139l.004.002 23.162-33.795 9.91-14.459-.011-.004c.414-.602.804-1.226 1.152-1.885 5.097-9.566 1.473-21.448-8.092-26.546a19.552 19.552 0 0 0-9.208-2.307c-7.018 0-13.807 3.775-17.338 10.402z"/></g><g><path fill="url(#a9u0p)" d="M358.663 244.408c-9.73 4.769-13.752 16.527-8.985 26.257.371.756.796 1.464 1.246 2.148l-.015.009 42.055 64.045.071-.036-10.367 16.009 32.305-15.834-4.319-8.81.072-.034-24.854-72.475-.015.008a19.94 19.94 0 0 0-.936-2.302c-3.406-6.953-10.382-10.991-17.637-10.991a19.526 19.526 0 0 0-8.621 2.006z"/></g><g><path fill="url(#a9u0q)" d="M345.11 165.93c-.539.158-1.053.357-1.553.574l-.006-.011-47.622 20.654.002.006a6.536 6.536 0 0 0-3.671 7.824 6.538 6.538 0 0 0 7.302 4.625v.004l51.26-8.194-.002-.011a13.191 13.191 0 0 0 1.618-.353c6.936-2.023 10.919-9.286 8.894-16.222-1.668-5.713-6.889-9.423-12.553-9.423-1.213 0-2.446.17-3.669.527z"/></g><g><path fill="#fdc7d7" d="M296.706 186.866l-10.335-.392 4.58 15.7 9.42-2.749z"/></g><g><path fill="url(#a9u0r)" d="M283.987 76.828l-1.425 7.622a5.379 5.379 0 0 1-4.3 4.3l-7.624 1.425c-.722.134-.722 1.17 0 1.304l7.624 1.425a5.379 5.379 0 0 1 4.3 4.3l1.425 7.623c.135.723 1.17.723 1.304 0l1.426-7.623a5.381 5.381 0 0 1 4.299-4.3l7.625-1.425c.721-.134.721-1.17 0-1.304l-7.625-1.425a5.381 5.381 0 0 1-4.299-4.3l-1.426-7.622a.646.646 0 0 0-.652-.543.646.646 0 0 0-.652.543z"/></g><g><path fill="url(#a9u0s)" d="M258.44 97.52l-1.119 5.981a4.217 4.217 0 0 1-3.373 3.373l-5.979 1.119c-.567.104-.567.917 0 1.023l5.979 1.117a4.218 4.218 0 0 1 3.373 3.373l1.119 5.981c.104.567.917.567 1.023 0l1.117-5.981a4.223 4.223 0 0 1 3.373-3.373l5.981-1.117c.567-.106.567-.919 0-1.023l-5.981-1.119a4.222 4.222 0 0 1-3.373-3.373l-1.117-5.981a.507.507 0 0 0-.512-.424.505.505 0 0 0-.511.424z"/></g><g><path fill="url(#a9u0t)" d="M244.04 71.588l-.803 4.302a3.037 3.037 0 0 1-2.426 2.425l-4.302.804c-.408.076-.408.659 0 .736l4.302.804a3.037 3.037 0 0 1 2.426 2.426l.803 4.302c.076.407.661.407.737 0l.803-4.302a3.035 3.035 0 0 1 2.426-2.426l4.302-.804c.407-.077.407-.66 0-.736l-4.302-.804a3.035 3.035 0 0 1-2.426-2.425l-.803-4.302a.365.365 0 0 0-.369-.306.365.365 0 0 0-.368.306z"/></g><g><path fill="url(#a9u0u)" d="M333.935 67.661c-4.609 0-8.45 3.19-9.502 7.473h-14.342v2.339h46.738c0-5.42-4.395-9.812-9.813-9.812z"/></g></g></svg>