<svg xmlns="http://www.w3.org/2000/svg" width="119" height="104" viewBox="0 0 119 104"><g><g><path fill="#ffd400" d="M110.123 44.523c4.737 0 8.591 3.916 8.591 8.727 0 4.814-3.854 8.732-8.591 8.732-.053 0-.102-.015-.155-.018l-7.82 40.509a1.79 1.79 0 0 1-1.752 1.464H19.178a1.792 1.792 0 0 1-1.752-1.464l-7.82-40.51c-.053.004-.101.019-.153.019-4.739 0-8.593-3.918-8.593-8.732 0-4.811 3.854-8.727 8.593-8.727 4.736 0 8.59 3.916 8.59 8.727 0 1.352-.329 2.617-.871 3.759l18.995 13.787 15.348-32.09A20.29 20.29 0 0 1 40.302 20.52C40.302 9.353 49.245.266 60.237.266c4.884 0 9.582 1.813 13.232 5.107a1.83 1.83 0 0 1 .15 2.557 1.76 1.76 0 0 1-2.522.15 16.2 16.2 0 0 0-10.86-4.184c-9.024 0-16.365 7.457-16.365 16.625 0 9.166 7.341 16.625 16.365 16.625 8.514 0 15.681-6.748 16.316-15.363a1.818 1.818 0 0 1 1.915-1.676c.983.078 1.72.945 1.647 1.944-.562 7.636-5.343 14.053-11.895 16.99l15.187 31.755 18.995-13.784c-.542-1.145-.87-2.41-.87-3.762 0-4.811 3.853-8.727 8.591-8.727zM9.453 58.352c2.768 0 5.019-2.29 5.019-5.102 0-2.811-2.251-5.1-5.019-5.1-2.77 0-5.022 2.289-5.022 5.1 0 2.812 2.252 5.102 5.022 5.102zm97.037 2.779a8.514 8.514 0 0 1-1.894-1.255l-20.833 15.12c-.428.312-.97.418-1.479.283a1.79 1.79 0 0 1-1.164-.965L64.807 40.208c-1.474.359-3 .569-4.57.569-1.864 0-3.66-.283-5.372-.771L38.457 74.314a1.77 1.77 0 0 1-2.645.683L14.978 59.876a8.485 8.485 0 0 1-1.893 1.255l7.562 39.179h78.281zm3.633-2.78c2.767 0 5.02-2.29 5.02-5.101s-2.253-5.1-5.02-5.1c-2.769 0-5.021 2.289-5.021 5.1 0 2.812 2.252 5.102 5.021 5.102z"/></g></g></svg>