<svg xmlns="http://www.w3.org/2000/svg" width="107" height="109" viewBox="0 0 107 109"><g><g><path fill="#ffd400" d="M41.499 80.583c3.792 0 6.877 3.136 6.877 6.988v13.835c0 3.852-3.085 6.984-6.877 6.984-4.211 0-8.298-1.063-11.816-3.075C11.528 94.926.249 75.333.249 54.182c0-21.154 11.28-40.75 29.439-51.136C33.207 1.03 37.29-.033 41.498-.033c3.793 0 6.878 3.136 6.878 6.988V20.79c0 3.851-3.085 6.988-6.877 6.988h-5.26a1.16 1.16 0 0 1-.22-.018c-3.022-.418-5.867.393-8.001 2.282-2.13 1.892-3.306 4.64-3.306 7.747v31.085c0 6.46 5.17 11.71 11.527 11.71zm-3.644-56.092h3.644c2.009 0 3.644-1.658 3.644-3.7V6.954c0-2.039-1.635-3.702-3.644-3.702-1.236 0-2.45.146-3.644.348zm-3.233 59.286c-7.381-.82-13.143-7.19-13.143-14.903V37.79c0-4.069 1.568-7.699 4.414-10.223 2.4-2.13 5.454-3.224 8.729-3.185V4.435c-1.16.402-2.292.87-3.347 1.474C14.132 15.712 3.482 34.211 3.482 54.182c0 19.964 10.647 38.462 27.788 48.27 1.057.604 2.19 1.072 3.352 1.474zm10.52 3.794c0-2.043-1.634-3.7-3.643-3.7h-3.644v20.89c1.194.201 2.406.347 3.642.347 2.01 0 3.646-1.659 3.646-3.702z"/></g><g><path fill="#ffd400" d="M60.013 70.325c-10.895 0-19.76-9.009-19.76-20.078v-4.38c0-.905-.724-1.642-1.616-1.642a1.63 1.63 0 0 0-1.618 1.641v4.381c0 12.883 10.317 23.365 22.994 23.365 12.68 0 22.996-10.482 22.996-23.365v-4.38c0-.905-.725-1.642-1.618-1.642-.892 0-1.616.737-1.616 1.641v4.381c0 11.07-8.866 20.078-19.762 20.078z"/></g><g><path fill="#ffd400" d="M42.408 44.773c0 .908.724 1.641 1.618 1.641.892 0 1.616-.732 1.616-1.641 0-3.928-3.143-7.122-7.006-7.122-3.863 0-7.007 3.194-7.007 7.121a1.63 1.63 0 0 0 1.618 1.643c.892 0 1.616-.733 1.616-1.642 0-2.114 1.693-3.835 3.773-3.835s3.772 1.721 3.772 3.834z"/></g><g><path fill="#ffd400" d="M77.619 44.773c0-2.114 1.692-3.835 3.772-3.835s3.773 1.721 3.773 3.834c0 .91.724 1.643 1.616 1.643a1.63 1.63 0 0 0 1.618-1.642c0-3.928-3.144-7.122-7.007-7.122-3.863 0-7.006 3.194-7.006 7.121 0 .91.724 1.643 1.616 1.643.894 0 1.618-.733 1.618-1.642z"/></g><g><path fill="#ffd400" d="M97.277 25.935a1.628 1.628 0 0 0-1.605-1.443H53.225c-.892 0-1.617.737-1.617 1.64 0 .909.725 1.647 1.617 1.647H94.24l9.275 77.33h-50.29a1.63 1.63 0 0 0-1.617 1.64c0 .91.725 1.642 1.617 1.642h52.116c.464 0 .903-.2 1.21-.552a1.66 1.66 0 0 0 .395-1.288z"/></g></g></svg>